<?xml version="1.0" standalone="no"?><!DOCTYPE svg PUBLIC "-//W3C//DTD SVG 1.1//EN" "http://www.w3.org/Graphics/SVG/1.1/DTD/svg11.dtd"><svg t="1691560418583" class="icon" viewBox="0 0 1024 1024" version="1.1" xmlns="http://www.w3.org/2000/svg" p-id="4511" xmlns:xlink="http://www.w3.org/1999/xlink" width="200" height="200"><path d="M469.333333 173.312C300.949333 194.304 170.666667 337.92 170.666667 512c0 188.522667 152.810667 341.333333 341.333333 341.333333 174.08 0 317.696-130.282667 338.688-298.666666H512a42.666667 42.666667 0 0 1-42.666667-42.666667V173.312zM85.333333 512C85.333333 276.352 276.352 85.333333 512 85.333333a42.666667 42.666667 0 0 1 42.666667 42.666667v341.333333h341.333333a42.666667 42.666667 0 0 1 42.666667 42.666667c0 235.648-191.018667 426.666667-426.666667 426.666667S85.333333 747.648 85.333333 512z" fill="#000000" p-id="4512"></path><path d="M619.093333 116.266667a42.666667 42.666667 0 0 1 39.061334-5.12A426.688 426.688 0 0 1 913.92 368.810667a42.666667 42.666667 0 0 1-40.192 56.96h-230.186667a42.666667 42.666667 0 0 1-42.666666-42.666667V151.253333a42.666667 42.666667 0 0 1 18.218666-34.965333z m67.114667 102.186666v122.005334h120.896a341.333333 341.333333 0 0 0-120.896-121.984z" fill="#0078FF" p-id="4513"></path></svg>