<?xml version="1.0" standalone="no"?><!DOCTYPE svg PUBLIC "-//W3C//DTD SVG 1.1//EN" "http://www.w3.org/Graphics/SVG/1.1/DTD/svg11.dtd"><svg t="1691286601341" class="icon" viewBox="0 0 1024 1024" version="1.1" xmlns="http://www.w3.org/2000/svg" p-id="5175" xmlns:xlink="http://www.w3.org/1999/xlink" width="200" height="200"><path d="M512 170.666667C323.477333 170.666667 170.666667 323.477333 170.666667 512s152.810667 341.333333 341.333333 341.333333 341.333333-152.810667 341.333333-341.333333S700.522667 170.666667 512 170.666667zM85.333333 512C85.333333 276.352 276.352 85.333333 512 85.333333s426.666667 191.018667 426.666667 426.666667-191.018667 426.666667-426.666667 426.666667S85.333333 747.648 85.333333 512z" fill="#000000" p-id="5176"></path><path d="M554.666667 490.026667V277.333333h-85.333334v234.666667a42.666667 42.666667 0 0 0 17.856 34.730667l149.333334 106.666666 49.621333-69.461333L554.666667 490.048z" fill="#0078FF" p-id="5177"></path></svg>