<?xml version="1.0" standalone="no"?><!DOCTYPE svg PUBLIC "-//W3C//DTD SVG 1.1//EN" "http://www.w3.org/Graphics/SVG/1.1/DTD/svg11.dtd"><svg t="1691286795139" class="icon" viewBox="0 0 1024 1024" version="1.1" xmlns="http://www.w3.org/2000/svg" p-id="7078" xmlns:xlink="http://www.w3.org/1999/xlink" width="200" height="200"><path d="M512 202.666667c-108.010667 0-197.973333 79.125333-215.125333 183.253333l-4.757334 28.8-28.586666 6.016C186.304 436.992 128 506.026667 128 588.885333c0 84.650667 60.8 154.837333 140.544 169.109334l41.984 7.530666-15.018667 83.989334-42.026666-7.509334C133.525333 820.522667 42.666667 715.285333 42.666667 588.885333c0-113.770667 73.6-210.410667 175.829333-244.224C252.586667 213.973333 370.922667 117.333333 512 117.333333c141.077333 0 259.413333 96.64 293.504 227.306667A257.088 257.088 0 0 1 981.333333 588.906667c0 126.4-90.837333 231.637333-210.837333 253.12l-42.005333 7.509333-15.018667-83.989333 41.984-7.530667C835.2 743.722667 896 673.536 896 588.885333c0-82.858667-58.282667-151.893333-135.552-168.149333l-28.586667-5.994667-4.736-28.821333C709.994667 281.792 620.010667 202.666667 512 202.666667z" fill="#000000" p-id="7079"></path><path d="M700.330667 661.333333l-172.373334 172.373334a42.666667 42.666667 0 0 1-60.352 0l-101.269333-101.269334L426.666667 672.106667l71.104 71.104L640 601.002667 700.330667 661.333333z" fill="#0078FF" p-id="7080"></path></svg>