<?xml version="1.0" standalone="no"?><!DOCTYPE svg PUBLIC "-//W3C//DTD SVG 1.1//EN" "http://www.w3.org/Graphics/SVG/1.1/DTD/svg11.dtd"><svg t="1688282443653" class="icon" viewBox="0 0 1024 1024" version="1.1" xmlns="http://www.w3.org/2000/svg" p-id="4506" xmlns:xlink="http://www.w3.org/1999/xlink" width="200" height="200"><path d="M298.666667 298.666667h384v85.333333H298.666667v-85.333333zM298.666667 469.333333h256v85.333334H298.666667v-85.333334z" fill="#000000" p-id="4507"></path><path d="M170.666667 85.333333a42.666667 42.666667 0 0 0-42.666667 42.666667v768a42.666667 42.666667 0 0 0 42.666667 42.666667h256v-85.333334H213.333333V170.666667h554.666667v277.333333h85.333333V128a42.666667 42.666667 0 0 0-42.666666-42.666667H170.666667z" fill="#000000" p-id="4508"></path><path d="M737.834667 545.834667a42.666667 42.666667 0 0 1 60.330666 0l106.666667 106.666666a42.666667 42.666667 0 0 1 0 60.330667l-213.333333 213.333333A42.666667 42.666667 0 0 1 661.333333 938.666667h-106.666666a42.666667 42.666667 0 0 1-42.666667-42.666667v-106.666667a42.666667 42.666667 0 0 1 12.501333-30.165333l213.333334-213.333333zM597.333333 806.997333V853.333333h46.336l170.666667-170.666666L768 636.330667l-170.666667 170.666666z" fill="#0078FF" p-id="4509"></path></svg>