<?xml version="1.0" standalone="no"?><!DOCTYPE svg PUBLIC "-//W3C//DTD SVG 1.1//EN" "http://www.w3.org/Graphics/SVG/1.1/DTD/svg11.dtd"><svg t="1691560312410" class="icon" viewBox="0 0 1024 1024" version="1.1" xmlns="http://www.w3.org/2000/svg" p-id="4363" xmlns:xlink="http://www.w3.org/1999/xlink" width="200" height="200"><path d="M128 853.333333a42.666667 42.666667 0 0 0 42.666667 42.666667h682.666666a42.666667 42.666667 0 0 0 42.666667-42.666667V533.333333h-85.333333v277.333334H213.333333V213.333333h277.333334V128H170.666667a42.666667 42.666667 0 0 0-42.666667 42.666667v682.666666z" fill="#000000" p-id="4364"></path><path d="M661.333333 106.666667h-42.666666v85.333333h156.650666L464.149333 503.168 433.984 533.333333l60.352 60.352 30.165333-30.186666L832 256v149.333333h85.333333V149.333333a42.666667 42.666667 0 0 0-42.666666-42.666666H661.333333z" fill="#0078FF" p-id="4365"></path></svg>