<?xml version="1.0" standalone="no"?><!DOCTYPE svg PUBLIC "-//W3C//DTD SVG 1.1//EN" "http://www.w3.org/Graphics/SVG/1.1/DTD/svg11.dtd"><svg t="1691560431882" class="icon" viewBox="0 0 1024 1024" version="1.1" xmlns="http://www.w3.org/2000/svg" p-id="4657" xmlns:xlink="http://www.w3.org/1999/xlink" width="200" height="200"><path d="M512 170.666667a185.322667 185.322667 0 0 0-185.344 185.344v37.546666c0 91.029333-25.344 180.245333-73.173333 257.642667l-6.272 10.133333h529.578666l-6.250666-10.133333a489.962667 489.962667 0 0 1-73.194667-257.621333v-37.589334A185.322667 185.322667 0 0 0 512 170.666667z m-270.677333 185.344C241.344 206.506667 362.496 85.333333 512 85.333333c149.482667 0 270.677333 121.173333 270.677333 270.677334v37.546666c0 75.178667 20.906667 148.842667 60.437334 212.778667l46.506666 75.221333A42.666667 42.666667 0 0 1 853.333333 746.666667H170.666667a42.666667 42.666667 0 0 1-36.288-65.109334l46.506666-75.221333a404.608 404.608 0 0 0 60.458667-212.757333v-37.589334z" fill="#000000" p-id="4658"></path><path d="M426.666667 789.333333c0 46.4 38.933333 85.333333 85.333333 85.333334s85.333333-38.933333 85.333333-85.333334h85.333334c0 93.525333-77.141333 170.666667-170.666667 170.666667s-170.666667-77.141333-170.666667-170.666667h85.333334z" fill="#0078FF" p-id="4659"></path></svg>